<svg xmlns="http://www.w3.org/2000/svg" height="601.747" width="1475.227"><g fill="#fff"><path d="M565.17 445.753c-9.462 3.454-19.514 5.191-30.173 5.191-17.737 0-31.706-3.604-41.876-10.812-10.181-7.196-15.265-17.196-15.265-30.032 0-1.383.065-2.71.183-3.995a53.51 53.51 0 01.528-4l16.68-97.064h79.51l-13.836 82.272c-.24.988-.422 1.975-.536 2.956a23.583 23.583 0 00-.182 2.964c0 3.948 1.12 7.055 3.372 9.312 2.253 2.279 5.981 3.41 11.182 3.41 5.44 0 9.76-1.623 12.956-4.88 3.195-3.259 6.208-7.246 9.058-11.988l14.194-84.046h79.498l-23.774 142.646h-76.674l3.554-21.014c-9.465 9.276-18.932 15.635-28.398 19.08M808.148 235.79l-35.49 211.897h-79.51l35.497-211.896h79.503m277.002 151.522c0 5.92 1.48 10.704 4.435 14.36 2.956 3.646 8.227 5.471 15.798 5.471 3.309 0 6.678-.75 10.106-2.221a87.637 87.637 0 0010.127-5.182l7.445-43.502c-2.604-2.762-5.2-4.73-7.79-5.92-2.618-1.182-5.926-1.774-9.951-1.774-3.787 0-7.521.636-11.183 1.92-3.658 1.288-6.924 3.4-9.76 6.37-2.844 2.956-5.089 6.906-6.742 11.83-1.662 4.938-2.484 11.151-2.484 18.648m14.017 57.699c-8.164 3.95-16.501 5.932-25.017 5.932-24.85 0-43.183-5.19-55.019-15.541-11.839-10.352-17.75-24.516-17.75-42.467 0-13.025 2.125-25.107 6.391-36.252 4.263-11.144 10.346-20.805 18.276-29.005 7.932-8.183 17.692-14.547 29.284-19.088 11.596-4.538 24.843-6.808 39.755-6.808 10.648 0 19.459 1.881 26.445 5.63 6.976 3.743 12.467 9.963 16.506 18.643l3.546-21.015h79.863l-24.125 142.646h-75.612l3.194-18.644c-8.994 6.705-17.565 12.032-25.737 15.969m247.579-138.044c9.466-3.461 19.52-5.185 30.173-5.185 17.747 0 31.707 3.604 41.867 10.802 10.173 7.206 15.28 17.219 15.28 30.044 0 1.375-.067 2.708-.187 3.992a67.285 67.285 0 01-.533 3.987l-16.68 97.079h-79.507l13.853-82.284c.227-.97.4-1.964.52-2.951.12-.987.187-1.964.187-2.956 0-3.95-1.133-7.057-3.373-9.328-2.254-2.263-5.987-3.41-11.187-3.41-5.447 0-9.763 1.637-12.957 4.894-3.196 3.259-6.208 7.245-9.05 11.983l-14.196 84.052h-79.509l23.777-142.646h76.67l-3.555 21.015c9.472-9.27 18.94-15.635 28.407-19.088m-353.17 2.382l-6.244 41.56h-69.666c-12.819 0-20.719 9.302-23.724 27.9-.366 2.251-.56 4.389-.56 6.454 0 12.716 6.32 19.068 18.95 19.068h69.395l-6.44 43.51-90.353-.283c-27.774 0-47.943-4.987-60.516-14.97-10.844-8.572-16.271-21.39-16.271-38.47 0-4.371.333-9.134 1.008-14.263 6.503-47.084 39.057-70.593 97.653-70.505h86.768M377.785 529.766h-13.558v-11.029h38.833v11.03h-13.557v70.77h-11.718v-70.77m33.785-11.03h11.72v35.04h14.474v-35.04h11.72v81.8h-11.72V564.12h-14.475v36.418h-11.718v-81.8m49.468-.001h34.926v11.03h-23.208v24.01h20.22v11.031h-20.22v24.012h23.208v11.717H461.04v-81.8m81.565 38.833h5.63c9.536 0 9.652-5.63 9.652-13.787 0-7.698 0-14.017-9.192-14.017h-6.09zm-11.718-38.833h17.578c6.434 0 11.144 1.492 15.164 5.745 4.023 4.25 5.287 9.42 5.287 19.186 0 7.122-.576 11.948-3.333 16.43-3.216 5.283-8.387 8.5-17.003 8.5h-5.975v31.94h-11.718v-81.8m59.866 36.532h6.664c8.156 0 9.42-4.594 9.42-12.751 0-8.272-1.378-12.753-9.994-12.753h-6.09zm-11.718-36.533h18.842c13.9 0 20.679 8.157 20.679 24.012 0 9.42-2.641 16.314-10.11 20.45l12.638 37.338h-12.408l-10.915-34.925h-7.008v34.925h-11.718v-81.8m61.36 62.499c0 5.63 3.676 8.272 7.926 8.272 4.252 0 7.93-2.642 7.93-8.272v-43.197c0-5.63-3.678-8.273-7.93-8.273-4.25 0-7.926 2.642-7.926 8.273zm-11.719-43.197c0-13.328 10.11-19.991 19.645-19.991 9.538 0 19.647 6.663 19.647 19.99v43.198c0 13.327-10.11 19.99-19.647 19.99-9.534 0-19.645-6.663-19.645-19.99v-43.197m73.745 62.498h-10.34l-16.66-81.8h12.41l9.306 57.1h.228l9.422-57.1h12.409l-16.775 81.8m26.112-81.8h34.927v11.03h-23.208v24.01h20.22v11.031h-20.22v24.012h23.208v11.717h-34.927v-81.8m44.32 0h11.26l17.694 49.287h.229v-49.287h11.719v81.8h-11.03l-17.921-49.172h-.23v49.172h-11.72v-81.8m116.722 23.551h-11.72v-2.641c0-5.4-2.296-9.88-8.27-9.88-6.435 0-7.929 5.169-7.929 10.569 0 6.319.576 8.501 6.664 10.915l8.962 3.56c10.34 3.908 12.293 10.455 12.293 22.403 0 13.787-5.056 24.013-20.22 24.013-11.375 0-19.99-8.387-19.99-19.416v-4.366h11.718v3.676c0 4.251 2.297 8.387 8.272 8.387 7.927 0 8.5-4.71 8.5-12.179 0-8.73-1.032-10.109-6.777-12.406l-8.387-3.448c-10.11-4.135-12.752-10.8-12.752-21.024 0-12.408 6.664-22.403 20.105-22.403 11.718 0 19.531 9.421 19.531 18.497v5.743m47.723 39.982c0 10.111-8.159 18.957-18.614 18.957-8.96 0-19.301-4.366-19.301-19.302V536.89c0-10.685 7.697-18.841 19.072-18.841 10.799 0 18.843 8.156 18.843 19.53v4.597h-11.72v-3.907c0-4.596-2.758-8.502-7.239-8.502-5.859 0-7.237 4.022-7.237 9.536v41.82c0 4.71 1.838 8.386 7.122 8.386 3.218 0 7.354-1.837 7.354-8.272v-4.022h11.72v5.057m22.193-27.002h6.664c8.157 0 9.421-4.594 9.421-12.751 0-8.272-1.38-12.753-9.994-12.753h-6.091zm-11.719-36.533h18.842c13.901 0 20.681 8.157 20.681 24.012 0 9.42-2.643 16.314-10.11 20.45l12.637 37.338h-12.407l-10.915-34.925h-7.009v34.925h-11.719v-81.8m51.342 0h34.926v11.03h-23.208v24.01h20.22v11.031h-20.22v24.012h23.208v11.717h-34.926v-81.8m44.529 0h34.925v11.03h-23.208v24.01h20.222v11.031h-20.222v24.012h23.208v11.717h-34.925v-81.8m44.323 0h11.257l17.693 49.287h.231v-49.287h11.719v81.8h-11.03l-17.924-49.172h-.228v49.172h-11.718v-81.8m116.032 63.533c0 10.111-8.159 18.957-18.612 18.957-8.962 0-19.302-4.366-19.302-19.302V536.89c0-10.685 7.696-18.841 19.071-18.841 10.8 0 18.843 8.156 18.843 19.53v4.597h-11.72v-3.907c0-4.596-2.758-8.502-7.238-8.502-5.86 0-7.237 4.022-7.237 9.536v41.82c0 4.71 1.837 8.386 7.123 8.386 3.217 0 7.352-1.837 7.352-8.272v-4.022h11.72v5.057m10.474-63.535h11.718v35.04h14.477v-35.04h11.719v81.8h-11.719V564.12h-14.477v36.418h-11.718v-81.8m60.648 62.498c0 5.63 3.676 8.272 7.927 8.272 4.252 0 7.928-2.642 7.928-8.272v-43.197c0-5.63-3.676-8.273-7.928-8.273-4.25 0-7.927 2.642-7.927 8.273zm-11.718-43.197c0-13.328 10.11-19.991 19.645-19.991 9.536 0 19.647 6.663 19.647 19.99v43.198c0 13.327-10.111 19.99-19.647 19.99-9.535 0-19.645-6.663-19.645-19.99v-43.197m50.525 62.498h11.719v-81.8h-11.719zm60.845-18.267c0 10.111-8.16 18.957-18.613 18.957-8.96 0-19.307-4.366-19.307-19.302V536.89c0-10.685 7.707-18.841 19.08-18.841 10.8 0 18.84 8.156 18.84 19.53v4.597h-11.72v-3.907c0-4.596-2.76-8.502-7.24-8.502-5.853 0-7.24 4.022-7.24 9.536v41.82c0 4.71 1.84 8.386 7.12 8.386 3.227 0 7.36-1.837 7.36-8.272v-4.022h11.72v5.057m10.48-63.535h34.92v11.03h-23.213v24.01h20.227v11.031h-20.227v24.012h23.213v11.717h-34.92v-81.8M569.077 157.76H421.38L214.59 456.652l-25.953-151.61H40.997l71.997 296.705h143.302L569.077 157.76"/><path d="M1475.227 113.99c-83.16 86.029-188.246 133.198-309.035 128.018-202.947-8.688-390.83-104.788-584.977-155.316-98.96-25.763-197.827-42.59-300.358-39.619C180.225 49.992 86.06 83.651 0 133.96v-10.65C79.933 61.147 164.705 16.819 266.092 3.595 361.953-8.912 464.589 12.77 554.856 44.91c188.217 67.018 382.297 164.318 587.17 155.66 120.329-5.092 226.867-42.071 333.2-96.563v9.981"/></g></svg>